<svg width="197" height="72" viewBox="0 0 197 72" fill="none" xmlns="http://www.w3.org/2000/svg">
<path d="M113.352 48.288C113.352 52 112.296 55.456 110.184 58.656C108.136 61.792 105.192 64.32 101.352 66.24C97.576 68.096 93.288 69.024 88.488 69.024C80.616 69.024 74.344 67.2 69.672 63.552C65.064 59.904 62.76 54.72 62.76 48H80.232C80.68 53.376 83.432 56.064 88.488 56.064C90.856 56.064 92.712 55.456 94.056 54.24C95.4 52.96 96.072 51.296 96.072 49.248C96.072 47.456 95.496 45.984 94.344 44.832C93.192 43.68 91.784 42.784 90.12 42.144C88.456 41.504 86.056 40.736 82.92 39.84C78.696 38.688 75.24 37.504 72.552 36.288C69.864 35.072 67.56 33.216 65.64 30.72C63.72 28.224 62.76 24.896 62.76 20.736C62.76 16.576 63.848 12.928 66.024 9.792C68.2 6.656 71.144 4.256 74.856 2.592C78.632 0.863998 82.792 0 87.336 0C94.824 0 100.808 1.664 105.288 4.992C109.768 8.256 112.104 13.44 112.296 20.544H94.44C94.184 18.112 93.384 16.256 92.04 14.976C90.76 13.632 89.128 12.96 87.144 12.96C85.032 12.96 83.304 13.504 81.96 14.592C80.68 15.68 80.04 17.344 80.04 19.584C80.04 21.44 80.616 22.976 81.768 24.192C82.92 25.344 84.36 26.272 86.088 26.976C87.88 27.616 90.28 28.32 93.288 29.088C97.576 30.304 101.032 31.488 103.656 32.64C106.344 33.792 108.616 35.648 110.472 38.208C112.392 40.704 113.352 44.064 113.352 48.288Z" fill="white"/>
<path d="M0 57.352H23V68.352H0V57.352Z" fill="white"/>
<path d="M0 0.352001H23V11.352H0V0.352001Z" fill="white"/>
<path d="M23 40.352V29.352H34V40.352H23Z" fill="white"/>
<path d="M57 34.352C57 53.1297 41.7777 68.352 23 68.352V57.3467C35.4717 57.0807 45.5 46.8875 45.5 34.352C45.5 21.8166 35.4717 11.6233 23 11.3573V0.352001C41.7777 0.352001 57 15.5743 57 34.352Z" fill="white"/>
<path d="M196.856 71.352L175.64 37.752L196.952 3.96H178.328L166.808 23.64L154.424 3.96H135.8L139.825 10.352H120V20.352H146.121L153.676 32.352H130V42.352H154.059L146.504 54.352H120V64.352H140.207L135.8 71.352H154.424L165.848 51.768L178.232 71.352H196.856Z" fill="#FF0000"/>
</svg>
